<svg width="34" height="28" viewBox="0 0 34 28" fill="none" xmlns="http://www.w3.org/2000/svg">
<path fill-rule="evenodd" clip-rule="evenodd" d="M0.333336 2.14811C0.333336 1.32991 0.982199 0.666626 1.78261 0.666626H32.2174C33.0178 0.666626 33.6667 1.32991 33.6667 2.14811C33.6667 2.96631 33.0178 3.62959 32.2174 3.62959H1.78261C0.982199 3.62959 0.333336 2.96631 0.333336 2.14811ZM0.333336 14C0.333336 13.1818 0.982199 12.5185 1.78261 12.5185H32.2174C33.0178 12.5185 33.6667 13.1818 33.6667 14C33.6667 14.8182 33.0178 15.4814 32.2174 15.4814H1.78261C0.982199 15.4814 0.333336 14.8182 0.333336 14ZM0.333336 25.8518C0.333336 25.0336 0.982199 24.3703 1.78261 24.3703H32.2174C33.0178 24.3703 33.6667 25.0336 33.6667 25.8518C33.6667 26.67 33.0178 27.3333 32.2174 27.3333H1.78261C0.982199 27.3333 0.333336 26.67 0.333336 25.8518Z" fill="#36392D"/>
</svg>
